<svg width="66" height="49" viewBox="0 0 66 49" fill="none" xmlns="http://www.w3.org/2000/svg">
<path d="M0 23H66V47C66 48.1046 65.1046 49 64 49H2C0.895429 49 0 48.1046 0 47V23Z" fill="#009CDE"/>
<path d="M0 2C0 0.89543 0.895431 0 2 0H64C65.1046 0 66 0.895431 66 2V26H0V2Z" fill="white"/>
<rect x="28" y="32" width="11" height="17" fill="white"/>
<path d="M28.6926 31.7351L33.034 28.6131L55.5585 45.2386L50.8084 49L28.6926 31.7351Z" fill="white"/>
<path d="M37.2732 31.7351L32.9318 28.6131L10.4074 45.2386L15.1574 49L37.2732 31.7351Z" fill="white"/>
<ellipse cx="33" cy="12.5" rx="12" ry="9.5" fill="#009CDE"/>
</svg>
