<svg width="24" height="24" viewBox="0 0 24 24" fill="none" xmlns="http://www.w3.org/2000/svg">
<path d="M5.34692 14.8721C5.34692 15.3643 5.72974 15.6924 6.35864 15.6924H9.06567C9.12036 16.9365 10.1047 18.0439 11.5061 18.0439C12.9075 18.0439 13.8918 16.9434 13.9534 15.6924H16.6536C17.2825 15.6924 17.6653 15.3643 17.6653 14.8721C17.6653 14.209 17.0159 13.6279 16.4485 13.0537C16.011 12.6094 15.9016 11.7002 15.8401 10.9072C15.7786 8.3916 15.1018 6.75098 13.3928 6.12891C13.1672 5.28125 12.4631 4.61816 11.5061 4.61816C10.5491 4.61816 9.85181 5.28125 9.61938 6.12891C7.9104 6.75098 7.23364 8.3916 7.17212 10.9072C7.11743 11.7002 7.00122 12.6094 6.56372 13.0537C5.99634 13.6279 5.34692 14.209 5.34692 14.8721ZM6.70044 14.6533V14.5713C6.83716 14.3867 7.21997 14.0176 7.5481 13.6416C8.0061 13.1289 8.22485 12.2607 8.27954 11.0098C8.34106 8.25488 9.16821 7.35938 10.2551 7.06543C10.4192 7.02441 10.5081 6.94922 10.5149 6.77832C10.5422 6.1084 10.9182 5.65039 11.5061 5.65039C12.094 5.65039 12.4768 6.1084 12.4973 6.77832C12.511 6.94922 12.5999 7.02441 12.7571 7.06543C13.844 7.35938 14.6711 8.25488 14.7327 11.0098C14.7942 12.2607 15.0061 13.1289 15.4641 13.6416C15.7991 14.0176 16.175 14.3867 16.3049 14.5713V14.6533H6.70044ZM10.1458 15.6924H12.8733C12.8254 16.5469 12.2717 17.0938 11.5061 17.0938C10.7405 17.0938 10.1936 16.5469 10.1458 15.6924Z" fill="white" fill-opacity="0.6"/>
</svg>
