<svg width="24" height="24" viewBox="0 0 24 24" fill="none" xmlns="http://www.w3.org/2000/svg">
<path d="M7.0061 18.1602C7.8811 18.1602 9.68579 17.2852 11.012 16.335C15.5374 16.4443 18.928 13.8398 18.928 10.4287C18.928 7.14746 15.6399 4.50879 11.5452 4.50879C7.4436 4.50879 4.15552 7.14746 4.15552 10.4287C4.15552 12.5547 5.5022 14.4414 7.54614 15.3984C7.2522 15.9521 6.72583 16.6973 6.43872 17.0801C6.07642 17.5586 6.302 18.1602 7.0061 18.1602ZM7.71704 17.0049C7.65552 17.0322 7.62817 16.9912 7.66919 16.9365C8.02466 16.5059 8.53052 15.8428 8.7561 15.4189C8.94067 15.0771 8.88599 14.7764 8.47583 14.5781C6.46606 13.6416 5.30396 12.1445 5.30396 10.4287C5.30396 7.79688 8.06567 5.65039 11.5452 5.65039C15.0178 5.65039 17.7795 7.79688 17.7795 10.4287C17.7795 13.0674 15.0178 15.2139 11.5452 15.2139C11.4153 15.2139 11.2239 15.207 10.9778 15.2002C10.6975 15.2002 10.4924 15.2822 10.2463 15.4805C9.45337 16.0547 8.2981 16.7725 7.71704 17.0049Z" fill="white" fill-opacity="0.6"/>
</svg>
