<svg width="50" height="41" viewBox="0 0 50 41" fill="none" xmlns="http://www.w3.org/2000/svg">
<path fill-rule="evenodd" clip-rule="evenodd" d="M36.6071 3.6001C36.8913 3.6001 37.1638 3.7005 37.3648 3.87921C37.5657 4.05792 37.6786 4.3003 37.6786 4.55304V7.41186H40.8929C41.177 7.41186 41.4495 7.51226 41.6505 7.69097C41.8514 7.86968 41.9643 8.11207 41.9643 8.3648C41.9643 8.61754 41.8514 8.85992 41.6505 9.03863C41.4495 9.21735 41.177 9.31774 40.8929 9.31774H37.6786V12.1766C37.6786 12.4293 37.5657 12.6717 37.3648 12.8504C37.1638 13.0291 36.8913 13.1295 36.6071 13.1295C36.323 13.1295 36.0505 13.0291 35.8495 12.8504C35.6486 12.6717 35.5357 12.4293 35.5357 12.1766V9.31774H32.3214C32.0373 9.31774 31.7647 9.21735 31.5638 9.03863C31.3629 8.85992 31.25 8.61754 31.25 8.3648C31.25 8.11207 31.3629 7.86968 31.5638 7.69097C31.7647 7.51226 32.0373 7.41186 32.3214 7.41186H35.5357V4.55304C35.5357 4.3003 35.6486 4.05792 35.8495 3.87921C36.0505 3.7005 36.323 3.6001 36.6071 3.6001Z" fill="white" fill-opacity="0.6"/>
<path d="M15.9167 31.3C15.9167 31.3 14 31.3 14 29.3834C14 27.4667 15.9167 21.7167 25.5 21.7167C35.0833 21.7167 37 27.4667 37 29.3834C37 31.3 35.0833 31.3 35.0833 31.3H15.9167ZM25.5 19.8C27.025 19.8 28.4875 19.1942 29.5659 18.1159C30.6442 17.0376 31.25 15.575 31.25 14.05C31.25 12.5251 30.6442 11.0625 29.5659 9.98418C28.4875 8.90585 27.025 8.30005 25.5 8.30005C23.975 8.30005 22.5125 8.90585 21.4341 9.98418C20.3558 11.0625 19.75 12.5251 19.75 14.05C19.75 15.575 20.3558 17.0376 21.4341 18.1159C22.5125 19.1942 23.975 19.8 25.5 19.8Z" fill="white" fill-opacity="0.6"/>
</svg>
