<svg width="22" height="24" viewBox="0 0 22 24" fill="none" xmlns="http://www.w3.org/2000/svg">
<path d="M8.46154 23.1429V17.1347C8.46154 16.7148 8.88462 16.2862 9.30769 16.2862H12.6923C13.1154 16.2862 13.5385 16.7148 13.5385 17.1433V23.1429C13.5385 23.3702 13.6276 23.5882 13.7863 23.749C13.945 23.9097 14.1602 24 14.3846 24H21.1538C21.3783 24 21.5935 23.9097 21.7522 23.749C21.9109 23.5882 22 23.3702 22 23.1429V11.1437C22.0002 11.031 21.9785 10.9195 21.9361 10.8154C21.8937 10.7112 21.8314 10.6166 21.7529 10.5369L19.4615 8.21758V2.5728C19.4615 2.34548 19.3724 2.12748 19.2137 1.96674C19.055 1.80601 18.8398 1.71571 18.6154 1.71571H16.9231C16.6987 1.71571 16.4834 1.80601 16.3248 1.96674C16.1661 2.12748 16.0769 2.34548 16.0769 2.5728V4.78923L11.5991 0.251802C11.5205 0.171984 11.4271 0.108658 11.3243 0.0654494C11.2215 0.0222411 11.1113 0 11 0C10.8887 0 10.7785 0.0222411 10.6757 0.0654494C10.5729 0.108658 10.4795 0.171984 10.4009 0.251802L0.247078 10.5369C0.168552 10.6166 0.106312 10.7112 0.063917 10.8154C0.0215219 10.9195 -0.000197238 11.031 1.34961e-06 11.1437V23.1429C1.34961e-06 23.3702 0.0891494 23.5882 0.247834 23.749C0.406519 23.9097 0.621741 24 0.846155 24H7.61539C7.8398 24 8.05502 23.9097 8.21371 23.749C8.37239 23.5882 8.46154 23.3702 8.46154 23.1429Z" fill="white" fill-opacity="0.6"/>
</svg>
