<svg width="29" height="23" viewBox="0 0 29 23" fill="none" xmlns="http://www.w3.org/2000/svg">
<path d="M10.875 11.5C12.3171 11.5 13.7002 10.8942 14.7199 9.81586C15.7396 8.73753 16.3125 7.27499 16.3125 5.75C16.3125 4.22501 15.7396 2.76247 14.7199 1.68414C13.7002 0.605802 12.3171 0 10.875 0C9.43289 0 8.04984 0.605802 7.03011 1.68414C6.01038 2.76247 5.4375 4.22501 5.4375 5.75C5.4375 7.27499 6.01038 8.73753 7.03011 9.81586C8.04984 10.8942 9.43289 11.5 10.875 11.5ZM1.8125 23C1.8125 23 0 23 0 21.0833C0 19.1667 1.8125 13.4167 10.875 13.4167C19.9375 13.4167 21.75 19.1667 21.75 21.0833C21.75 23 19.9375 23 19.9375 23H1.8125ZM19.9375 2.875C19.9375 2.62083 20.033 2.37708 20.2029 2.19736C20.3729 2.01763 20.6034 1.91667 20.8438 1.91667H28.0938C28.3341 1.91667 28.5646 2.01763 28.7346 2.19736C28.9045 2.37708 29 2.62083 29 2.875C29 3.12917 28.9045 3.37292 28.7346 3.55264C28.5646 3.73237 28.3341 3.83333 28.0938 3.83333H20.8438C20.6034 3.83333 20.3729 3.73237 20.2029 3.55264C20.033 3.37292 19.9375 3.12917 19.9375 2.875ZM20.8438 7.66667C20.6034 7.66667 20.3729 7.76763 20.2029 7.94736C20.033 8.12708 19.9375 8.37083 19.9375 8.625C19.9375 8.87917 20.033 9.12292 20.2029 9.30264C20.3729 9.48237 20.6034 9.58333 20.8438 9.58333H28.0938C28.3341 9.58333 28.5646 9.48237 28.7346 9.30264C28.9045 9.12292 29 8.87917 29 8.625C29 8.37083 28.9045 8.12708 28.7346 7.94736C28.5646 7.76763 28.3341 7.66667 28.0938 7.66667H20.8438ZM24.4688 13.4167C24.2284 13.4167 23.9979 13.5176 23.8279 13.6974C23.658 13.8771 23.5625 14.1208 23.5625 14.375C23.5625 14.6292 23.658 14.8729 23.8279 15.0526C23.9979 15.2324 24.2284 15.3333 24.4688 15.3333H28.0938C28.3341 15.3333 28.5646 15.2324 28.7346 15.0526C28.9045 14.8729 29 14.6292 29 14.375C29 14.1208 28.9045 13.8771 28.7346 13.6974C28.5646 13.5176 28.3341 13.4167 28.0938 13.4167H24.4688ZM24.4688 19.1667C24.2284 19.1667 23.9979 19.2676 23.8279 19.4474C23.658 19.6271 23.5625 19.8708 23.5625 20.125C23.5625 20.3792 23.658 20.6229 23.8279 20.8026C23.9979 20.9824 24.2284 21.0833 24.4688 21.0833H28.0938C28.3341 21.0833 28.5646 20.9824 28.7346 20.8026C28.9045 20.6229 29 20.3792 29 20.125C29 19.8708 28.9045 19.6271 28.7346 19.4474C28.5646 19.2676 28.3341 19.1667 28.0938 19.1667H24.4688Z" fill="white" fill-opacity="0.6"/>
</svg>
