<svg width="27" height="25" viewBox="0 0 27 25" fill="none" xmlns="http://www.w3.org/2000/svg">
<path d="M11.8125 3.90625C11.8125 3.69905 11.9014 3.50034 12.0596 3.35382C12.2179 3.20731 12.4325 3.125 12.6562 3.125H24.4688C24.6925 3.125 24.9071 3.20731 25.0654 3.35382C25.2236 3.50034 25.3125 3.69905 25.3125 3.90625V5.46875C25.3125 5.67595 25.2236 5.87466 25.0654 6.02118C24.9071 6.16769 24.6925 6.25 24.4688 6.25H12.6562C12.4325 6.25 12.2179 6.16769 12.0596 6.02118C11.9014 5.87466 11.8125 5.67595 11.8125 5.46875V3.90625ZM3.375 1.5625C2.47989 1.5625 1.62145 1.89174 0.988515 2.47779C0.355579 3.06384 0 3.8587 0 4.6875L0 7.8125C0 8.6413 0.355579 9.43616 0.988515 10.0222C1.62145 10.6083 2.47989 10.9375 3.375 10.9375H6.75C7.64511 10.9375 8.50355 10.6083 9.13649 10.0222C9.76942 9.43616 10.125 8.6413 10.125 7.8125V4.6875C10.125 3.8587 9.76942 3.06384 9.13649 2.47779C8.50355 1.89174 7.64511 1.5625 6.75 1.5625H3.375ZM3.375 14.0625C2.47989 14.0625 1.62145 14.3917 0.988515 14.9778C0.355579 15.5638 0 16.3587 0 17.1875L0 20.3125C0 21.1413 0.355579 21.9362 0.988515 22.5222C1.62145 23.1083 2.47989 23.4375 3.375 23.4375H6.75C7.64511 23.4375 8.50355 23.1083 9.13649 22.5222C9.76942 21.9362 10.125 21.1413 10.125 20.3125V17.1875C10.125 16.3587 9.76942 15.5638 9.13649 14.9778C8.50355 14.3917 7.64511 14.0625 6.75 14.0625H3.375ZM4.81612 8.36563C4.73775 8.43838 4.64464 8.4961 4.54213 8.53549C4.43962 8.57487 4.32973 8.59515 4.21875 8.59515C4.10777 8.59515 3.99788 8.57487 3.89537 8.53549C3.79286 8.4961 3.69975 8.43838 3.62137 8.36563L1.93388 6.80313C1.85543 6.73049 1.7932 6.64425 1.75074 6.54935C1.70829 6.45444 1.68643 6.35272 1.68643 6.25C1.68643 6.14728 1.70829 6.04556 1.75074 5.95065C1.7932 5.85575 1.85543 5.76951 1.93388 5.69687C2.01232 5.62424 2.10546 5.56662 2.20795 5.52731C2.31045 5.488 2.42031 5.46776 2.53125 5.46776C2.64219 5.46776 2.75205 5.488 2.85455 5.52731C2.95704 5.56662 3.05018 5.62424 3.12862 5.69687L4.21875 6.70781L6.99638 4.13437C7.07482 4.06174 7.16795 4.00412 7.27045 3.96481C7.37295 3.9255 7.48281 3.90526 7.59375 3.90526C7.70469 3.90526 7.81455 3.9255 7.91705 3.96481C8.01955 4.00412 8.11268 4.06174 8.19112 4.13437C8.26957 4.20701 8.3318 4.29325 8.37426 4.38815C8.41671 4.48306 8.43857 4.58478 8.43857 4.6875C8.43857 4.79022 8.41671 4.89194 8.37426 4.98685C8.3318 5.08175 8.26957 5.16799 8.19112 5.24063L4.81612 8.36563ZM4.81612 20.8656C4.73775 20.9384 4.64464 20.9961 4.54213 21.0355C4.43962 21.0749 4.32973 21.0951 4.21875 21.0951C4.10777 21.0951 3.99788 21.0749 3.89537 21.0355C3.79286 20.9961 3.69975 20.9384 3.62137 20.8656L1.93388 19.3031C1.77544 19.1564 1.68643 18.9575 1.68643 18.75C1.68643 18.5425 1.77544 18.3436 1.93388 18.1969C2.09231 18.0502 2.30719 17.9678 2.53125 17.9678C2.75531 17.9678 2.97019 18.0502 3.12862 18.1969L4.21875 19.2078L6.99638 16.6344C7.15481 16.4877 7.36969 16.4053 7.59375 16.4053C7.81781 16.4053 8.03269 16.4877 8.19112 16.6344C8.34956 16.7811 8.43857 16.98 8.43857 17.1875C8.43857 17.395 8.34956 17.5939 8.19112 17.7406L4.81612 20.8656ZM11.8125 16.4062C11.8125 16.199 11.9014 16.0003 12.0596 15.8538C12.2179 15.7073 12.4325 15.625 12.6562 15.625H24.4688C24.6925 15.625 24.9071 15.7073 25.0654 15.8538C25.2236 16.0003 25.3125 16.199 25.3125 16.4062V17.9688C25.3125 18.176 25.2236 18.3747 25.0654 18.5212C24.9071 18.6677 24.6925 18.75 24.4688 18.75H12.6562C12.4325 18.75 12.2179 18.6677 12.0596 18.5212C11.9014 18.3747 11.8125 18.176 11.8125 17.9688V16.4062ZM11.8125 8.59375C11.8125 8.38655 11.9014 8.18784 12.0596 8.04132C12.2179 7.89481 12.4325 7.8125 12.6562 7.8125H21.0938C21.3175 7.8125 21.5321 7.89481 21.6904 8.04132C21.8486 8.18784 21.9375 8.38655 21.9375 8.59375C21.9375 8.80095 21.8486 8.99966 21.6904 9.14618C21.5321 9.29269 21.3175 9.375 21.0938 9.375H12.6562C12.4325 9.375 12.2179 9.29269 12.0596 9.14618C11.9014 8.99966 11.8125 8.80095 11.8125 8.59375ZM11.8125 21.0938C11.8125 20.8865 11.9014 20.6878 12.0596 20.5413C12.2179 20.3948 12.4325 20.3125 12.6562 20.3125H21.0938C21.3175 20.3125 21.5321 20.3948 21.6904 20.5413C21.8486 20.6878 21.9375 20.8865 21.9375 21.0938C21.9375 21.301 21.8486 21.4997 21.6904 21.6462C21.5321 21.7927 21.3175 21.875 21.0938 21.875H12.6562C12.4325 21.875 12.2179 21.7927 12.0596 21.6462C11.9014 21.4997 11.8125 21.301 11.8125 21.0938Z" fill="white" fill-opacity="0.6"/>
</svg>
