<svg width="20" height="16" viewBox="0 0 20 16" fill="none" xmlns="http://www.w3.org/2000/svg">
<g clip-path="url(#clip0_316_1044)">
<path d="M10.625 10C10.28 10 10 9.552 10 9C10 8.448 10.28 8 10.625 8C10.97 8 11.25 8.448 11.25 9C11.25 9.552 10.97 10 10.625 10Z" fill="white" fill-opacity="0.6"/>
<path d="M13.535 0.122022C13.6026 0.169025 13.6568 0.227103 13.6939 0.29232C13.731 0.357537 13.7501 0.428371 13.75 0.500022V1.00002H14.375C14.8723 1.00002 15.3492 1.15806 15.7008 1.43936C16.0525 1.72067 16.25 2.1022 16.25 2.50002V15H18.125C18.2908 15 18.4497 15.0527 18.5669 15.1465C18.6842 15.2402 18.75 15.3674 18.75 15.5C18.75 15.6326 18.6842 15.7598 18.5669 15.8536C18.4497 15.9473 18.2908 16 18.125 16H1.875C1.70924 16 1.55027 15.9473 1.43306 15.8536C1.31585 15.7598 1.25 15.6326 1.25 15.5C1.25 15.3674 1.31585 15.2402 1.43306 15.1465C1.55027 15.0527 1.70924 15 1.875 15H3.75V1.50002C3.75002 1.37955 3.80441 1.26314 3.90317 1.1722C4.00192 1.08125 4.1384 1.02189 4.2875 1.00502L13.0375 0.00502214C13.1261 -0.00509591 13.2163 0.000113439 13.3021 0.0202981C13.388 0.0404827 13.4674 0.0751723 13.535 0.122022ZM14.375 2.00002H13.75V15H15V2.50002C15 2.36741 14.9342 2.24024 14.8169 2.14647C14.6997 2.0527 14.5408 2.00002 14.375 2.00002ZM5 1.93402V15H12.5V1.07702L5 1.93402Z" fill="white" fill-opacity="0.6"/>
</g>
<defs>
<clipPath id="clip0_316_1044">
<rect width="20" height="16" fill="white"/>
</clipPath>
</defs>
</svg>
