<svg width="25" height="22" viewBox="0 0 25 22" fill="none" xmlns="http://www.w3.org/2000/svg">
<rect y="1.20648" width="22" height="20" rx="4" fill="white" fill-opacity="0.6"/>
<circle cx="11" cy="6.20648" r="3" fill="#323232"/>
<rect x="9.57471" y="11.9253" width="2.80451" height="7.28116" fill="#323232"/>
<path d="M9.86824 11.568L11.012 10.2227L16.9462 17.387L15.6947 19.0079L9.86824 11.568Z" fill="#323232"/>
<path d="M12.1318 11.568L10.988 10.2227L5.05383 17.387L6.30525 19.0079L12.1318 11.568Z" fill="#323232"/>
<path d="M20.2837 5.60445C20.303 5.82483 20.2444 6.04294 20.1207 6.21078C19.997 6.37863 19.8184 6.48247 19.6242 6.49946C19.43 6.51645 19.2361 6.4452 19.0852 6.30138C18.9342 6.15756 18.8386 5.95295 18.8193 5.73257C18.8 5.51218 18.8587 5.29408 18.9824 5.12623C19.106 4.95838 19.2846 4.85454 19.4788 4.83755C19.673 4.82056 19.8669 4.89181 20.0179 5.03563C20.1688 5.17945 20.2644 5.38406 20.2837 5.60445ZM18.4074 1.02381C18.3945 0.876883 18.4336 0.731478 18.5161 0.619579C18.5985 0.507681 18.7176 0.438453 18.847 0.427127C21.543 0.191259 23.9454 2.48019 24.2131 5.53978C24.2259 5.6867 24.1868 5.83211 24.1044 5.94401C24.0219 6.0559 23.9029 6.12513 23.7734 6.13646C23.6439 6.14778 23.5147 6.10028 23.414 6.0044C23.3134 5.90852 23.2496 5.77212 23.2368 5.62519C23.134 4.44981 22.6239 3.35857 21.8188 2.59152C21.0138 1.82448 19.9797 1.44446 18.944 1.53507C18.8145 1.5464 18.6852 1.49889 18.5846 1.40301C18.484 1.30713 18.4202 1.17073 18.4074 1.02381ZM18.6012 3.23969C18.5884 3.09277 18.6275 2.94737 18.7099 2.83547C18.7924 2.72357 18.9114 2.65434 19.0409 2.64301C19.8177 2.57506 20.5933 2.86007 21.1971 3.43535C21.8009 4.01064 22.1834 4.82907 22.2605 5.71061C22.2734 5.85753 22.2343 6.00293 22.1518 6.11483C22.0694 6.22673 21.9503 6.29596 21.8208 6.30728C21.6914 6.31861 21.5621 6.27111 21.4615 6.17523C21.3608 6.07935 21.2971 5.94294 21.2842 5.79602C21.2328 5.20833 20.9778 4.66271 20.5753 4.27918C20.1727 3.89566 19.6557 3.70565 19.1378 3.75096C19.0084 3.76228 18.8791 3.71478 18.7785 3.6189C18.6778 3.52302 18.6141 3.38661 18.6012 3.23969Z" fill="black" fill-opacity="0.47"/>
<path d="M20.6364 5.3883C20.6364 5.6053 20.5502 5.8134 20.3967 5.96684C20.2433 6.12028 20.0352 6.20648 19.8182 6.20648C19.6012 6.20648 19.3931 6.12028 19.2396 5.96684C19.0862 5.8134 19 5.6053 19 5.3883C19 5.17131 19.0862 4.9632 19.2396 4.80976C19.3931 4.65632 19.6012 4.57012 19.8182 4.57012C20.0352 4.57012 20.2433 4.65632 20.3967 4.80976C20.5502 4.9632 20.6364 5.17131 20.6364 5.3883ZM19 0.751936C19 0.607273 19.0575 0.468534 19.1598 0.366242C19.2621 0.263949 19.4008 0.206482 19.5455 0.206482C22.558 0.206482 25 2.64848 25 5.66103C25 5.80569 24.9425 5.94443 24.8402 6.04672C24.7379 6.14901 24.5992 6.20648 24.4545 6.20648C24.3099 6.20648 24.1711 6.14901 24.0689 6.04672C23.9666 5.94443 23.9091 5.80569 23.9091 5.66103C23.9091 4.50372 23.4494 3.39381 22.631 2.57547C21.8127 1.75713 20.7028 1.29739 19.5455 1.29739C19.4008 1.29739 19.2621 1.23992 19.1598 1.13763C19.0575 1.03534 19 0.8966 19 0.751936ZM19 2.93375C19 2.78909 19.0575 2.65035 19.1598 2.54806C19.2621 2.44577 19.4008 2.3883 19.5455 2.3883C20.4134 2.3883 21.2459 2.7331 21.8596 3.34686C22.4734 3.96062 22.8182 4.79305 22.8182 5.66103C22.8182 5.80569 22.7607 5.94443 22.6584 6.04672C22.5561 6.14901 22.4174 6.20648 22.2727 6.20648C22.1281 6.20648 21.9893 6.14901 21.887 6.04672C21.7847 5.94443 21.7273 5.80569 21.7273 5.66103C21.7273 5.08237 21.4974 4.52742 21.0882 4.11825C20.6791 3.70908 20.1241 3.47921 19.5455 3.47921C19.4008 3.47921 19.2621 3.42174 19.1598 3.31945C19.0575 3.21716 19 3.07842 19 2.93375Z" fill="#C3C3C3"/>
</svg>
