<svg width="29" height="29" viewBox="0 0 29 29" fill="none" xmlns="http://www.w3.org/2000/svg">
<path d="M11.7812 0C11.0602 0 10.3687 0.286439 9.8588 0.796303C9.34894 1.30617 9.0625 1.99769 9.0625 2.71875V4.53125C9.0625 5.25231 9.34894 5.94383 9.8588 6.4537C10.3687 6.96356 11.0602 7.25 11.7812 7.25H17.2188C17.9398 7.25 18.6313 6.96356 19.1412 6.4537C19.6511 5.94383 19.9375 5.25231 19.9375 4.53125V2.71875C19.9375 1.99769 19.6511 1.30617 19.1412 0.796303C18.6313 0.286439 17.9398 0 17.2188 0L11.7812 0ZM17.2188 1.8125C17.4591 1.8125 17.6896 1.90798 17.8596 2.07793C18.0295 2.24789 18.125 2.4784 18.125 2.71875V4.53125C18.125 4.7716 18.0295 5.00211 17.8596 5.17207C17.6896 5.34202 17.4591 5.4375 17.2188 5.4375H11.7812C11.5409 5.4375 11.3104 5.34202 11.1404 5.17207C10.9705 5.00211 10.875 4.7716 10.875 4.53125V2.71875C10.875 2.4784 10.9705 2.24789 11.1404 2.07793C11.3104 1.90798 11.5409 1.8125 11.7812 1.8125H17.2188Z" fill="white" fill-opacity="0.6"/>
<path d="M7.25 2.71875H5.4375C4.47609 2.71875 3.55406 3.10067 2.87424 3.78049C2.19442 4.46031 1.8125 5.38234 1.8125 6.34375V25.375C1.8125 26.3364 2.19442 27.2584 2.87424 27.9383C3.55406 28.6181 4.47609 29 5.4375 29H23.5625C24.5239 29 25.4459 28.6181 26.1258 27.9383C26.8056 27.2584 27.1875 26.3364 27.1875 25.375V6.34375C27.1875 5.38234 26.8056 4.46031 26.1258 3.78049C25.4459 3.10067 24.5239 2.71875 23.5625 2.71875H21.75V4.53125C21.75 5.1263 21.6328 5.71553 21.4051 6.26528C21.1774 6.81504 20.8436 7.31456 20.4228 7.73533C20.0021 8.15609 19.5025 8.48986 18.9528 8.71758C18.403 8.9453 17.8138 9.0625 17.2188 9.0625H11.7812C10.5795 9.0625 9.42695 8.5851 8.57717 7.73533C7.7274 6.88555 7.25 5.73301 7.25 4.53125V2.71875ZM19.6729 16.0479L14.2354 21.4854C14.1512 21.5698 14.0512 21.6367 13.9411 21.6824C13.831 21.7281 13.713 21.7516 13.5938 21.7516C13.4745 21.7516 13.3565 21.7281 13.2464 21.6824C13.1363 21.6367 13.0363 21.5698 12.9521 21.4854L10.2334 18.7666C10.0632 18.5965 9.9676 18.3657 9.9676 18.125C9.9676 17.8843 10.0632 17.6535 10.2334 17.4834C10.4035 17.3132 10.6343 17.2176 10.875 17.2176C11.1157 17.2176 11.3465 17.3132 11.5166 17.4834L13.5938 19.5623L18.3896 14.7646C18.5598 14.5945 18.7906 14.4989 19.0312 14.4989C19.2719 14.4989 19.5027 14.5945 19.6729 14.7646C19.843 14.9348 19.9386 15.1656 19.9386 15.4062C19.9386 15.6469 19.843 15.8777 19.6729 16.0479Z" fill="white" fill-opacity="0.6"/>
</svg>
